<mxfile host="app.diagrams.net" modified="2024-07-10T21:30:56.534Z" agent="Mozilla/5.0 (Macintosh; Intel Mac OS X 10_15_7) AppleWebKit/537.36 (KHTML, like Gecko) Chrome/126.0.0.0 Safari/537.36" etag="FRU-nW3YLf_ztip4bOtU" version="24.6.4" type="device">
  <diagram name="Page-1" id="QxS8bCId8a-4wgC4GvOT">
    <mxGraphModel dx="1242" dy="755" grid="1" gridSize="10" guides="1" tooltips="1" connect="1" arrows="1" fold="1" page="1" pageScale="1" pageWidth="850" pageHeight="1100" math="0" shadow="0">
      <root>
        <mxCell id="0" />
        <mxCell id="1" parent="0" />
        <mxCell id="ATMSU0YLp7zQfDPAPbiL-1" value="LLM (Mistral)" style="sketch=0;points=[[0,0,0],[0.25,0,0],[0.5,0,0],[0.75,0,0],[1,0,0],[0,1,0],[0.25,1,0],[0.5,1,0],[0.75,1,0],[1,1,0],[0,0.25,0],[0,0.5,0],[0,0.75,0],[1,0.25,0],[1,0.5,0],[1,0.75,0]];outlineConnect=0;fontColor=#232F3E;fillColor=#DBFFF5;strokeColor=#333333;dashed=0;verticalLabelPosition=bottom;verticalAlign=top;align=center;html=1;fontSize=12;fontStyle=0;aspect=fixed;shape=mxgraph.aws4.resourceIcon;resIcon=mxgraph.aws4.augmented_ai;" vertex="1" parent="1">
          <mxGeometry x="780" y="354" width="78" height="78" as="geometry" />
        </mxCell>
        <mxCell id="ATMSU0YLp7zQfDPAPbiL-2" value="PDF Docs" style="html=1;verticalLabelPosition=bottom;align=center;labelBackgroundColor=#ffffff;verticalAlign=top;strokeWidth=2;strokeColor=#0080F0;shadow=0;dashed=0;shape=mxgraph.ios7.icons.documents;" vertex="1" parent="1">
          <mxGeometry x="46" y="48" width="54" height="60" as="geometry" />
        </mxCell>
        <mxCell id="ATMSU0YLp7zQfDPAPbiL-5" value="Web crawl" style="verticalLabelPosition=bottom;html=1;verticalAlign=top;align=center;strokeColor=none;fillColor=#00BEF2;shape=mxgraph.azure.website_generic;pointerEvents=1;" vertex="1" parent="1">
          <mxGeometry x="41" y="178" width="64" height="50" as="geometry" />
        </mxCell>
        <mxCell id="ATMSU0YLp7zQfDPAPbiL-15" style="edgeStyle=orthogonalEdgeStyle;rounded=0;orthogonalLoop=1;jettySize=auto;html=1;entryX=0;entryY=0.5;entryDx=0;entryDy=0;strokeColor=#009900;" edge="1" parent="1" source="ATMSU0YLp7zQfDPAPbiL-8" target="ATMSU0YLp7zQfDPAPbiL-26">
          <mxGeometry relative="1" as="geometry">
            <mxPoint x="400" y="290.5" as="targetPoint" />
          </mxGeometry>
        </mxCell>
        <mxCell id="ATMSU0YLp7zQfDPAPbiL-32" value="Documents" style="edgeLabel;html=1;align=center;verticalAlign=middle;resizable=0;points=[];" vertex="1" connectable="0" parent="ATMSU0YLp7zQfDPAPbiL-15">
          <mxGeometry x="-0.2746" y="4" relative="1" as="geometry">
            <mxPoint y="1" as="offset" />
          </mxGeometry>
        </mxCell>
        <mxCell id="ATMSU0YLp7zQfDPAPbiL-8" value="Retrieve Documents&lt;br&gt;&lt;br&gt;(Langchain)" style="whiteSpace=wrap;html=1;aspect=fixed;strokeColor=#2E7BFF;fillColor=#DBFFF5;" vertex="1" parent="1">
          <mxGeometry x="170" y="89" width="80" height="80" as="geometry" />
        </mxCell>
        <mxCell id="ATMSU0YLp7zQfDPAPbiL-29" style="edgeStyle=orthogonalEdgeStyle;rounded=0;orthogonalLoop=1;jettySize=auto;html=1;entryX=0;entryY=0.5;entryDx=0;entryDy=0;strokeColor=#0000FF;" edge="1" parent="1" source="ATMSU0YLp7zQfDPAPbiL-10" target="ATMSU0YLp7zQfDPAPbiL-23">
          <mxGeometry relative="1" as="geometry">
            <Array as="points">
              <mxPoint x="640" y="318" />
              <mxPoint x="640" y="393" />
            </Array>
          </mxGeometry>
        </mxCell>
        <mxCell id="ATMSU0YLp7zQfDPAPbiL-10" value="Vector DB&lt;br&gt;(Chroma)" style="shape=cylinder3;whiteSpace=wrap;html=1;boundedLbl=1;backgroundOutline=1;size=15;strokeColor=#2E7BFF;fillColor=#DBFFF5;" vertex="1" parent="1">
          <mxGeometry x="534" y="173" width="60" height="221" as="geometry" />
        </mxCell>
        <mxCell id="ATMSU0YLp7zQfDPAPbiL-18" style="edgeStyle=orthogonalEdgeStyle;rounded=0;orthogonalLoop=1;jettySize=auto;html=1;strokeColor=#0000FF;" edge="1" parent="1" source="ATMSU0YLp7zQfDPAPbiL-11" target="ATMSU0YLp7zQfDPAPbiL-12">
          <mxGeometry relative="1" as="geometry" />
        </mxCell>
        <mxCell id="ATMSU0YLp7zQfDPAPbiL-11" value="User" style="image;aspect=fixed;perimeter=ellipsePerimeter;html=1;align=center;shadow=0;dashed=0;spacingTop=3;image=img/lib/active_directory/user_accounts.svg;" vertex="1" parent="1">
          <mxGeometry x="46" y="408" width="50" height="48.5" as="geometry" />
        </mxCell>
        <mxCell id="ATMSU0YLp7zQfDPAPbiL-12" value="App&lt;div&gt;&lt;br&gt;&lt;/div&gt;" style="verticalLabelPosition=bottom;html=1;verticalAlign=top;align=center;strokeColor=none;fillColor=#00BEF2;shape=mxgraph.azure.website_generic;pointerEvents=1;" vertex="1" parent="1">
          <mxGeometry x="210" y="411" width="50" height="42.5" as="geometry" />
        </mxCell>
        <mxCell id="ATMSU0YLp7zQfDPAPbiL-19" style="edgeStyle=orthogonalEdgeStyle;rounded=0;orthogonalLoop=1;jettySize=auto;html=1;entryX=0;entryY=0.75;entryDx=0;entryDy=0;strokeColor=#0000FF;" edge="1" parent="1" source="ATMSU0YLp7zQfDPAPbiL-12" target="ATMSU0YLp7zQfDPAPbiL-26">
          <mxGeometry relative="1" as="geometry">
            <mxPoint x="400" y="324.25" as="targetPoint" />
          </mxGeometry>
        </mxCell>
        <mxCell id="ATMSU0YLp7zQfDPAPbiL-34" value="User Query" style="edgeLabel;html=1;align=center;verticalAlign=middle;resizable=0;points=[];" vertex="1" connectable="0" parent="ATMSU0YLp7zQfDPAPbiL-19">
          <mxGeometry x="-0.0724" y="-3" relative="1" as="geometry">
            <mxPoint as="offset" />
          </mxGeometry>
        </mxCell>
        <mxCell id="ATMSU0YLp7zQfDPAPbiL-23" value="Query&amp;nbsp;&lt;br&gt;+&lt;br&gt;Relevant Chunks" style="rounded=0;whiteSpace=wrap;html=1;strokeColor=#2E7BFF;fillColor=#DBFFF5;" vertex="1" parent="1">
          <mxGeometry x="661" y="308" width="80" height="170" as="geometry" />
        </mxCell>
        <mxCell id="ATMSU0YLp7zQfDPAPbiL-24" style="edgeStyle=orthogonalEdgeStyle;rounded=0;orthogonalLoop=1;jettySize=auto;html=1;entryX=0.013;entryY=0.15;entryDx=0;entryDy=0;entryPerimeter=0;strokeColor=#009900;" edge="1" parent="1" source="ATMSU0YLp7zQfDPAPbiL-2" target="ATMSU0YLp7zQfDPAPbiL-8">
          <mxGeometry relative="1" as="geometry" />
        </mxCell>
        <mxCell id="ATMSU0YLp7zQfDPAPbiL-25" style="edgeStyle=orthogonalEdgeStyle;rounded=0;orthogonalLoop=1;jettySize=auto;html=1;entryX=-0.012;entryY=0.875;entryDx=0;entryDy=0;entryPerimeter=0;strokeColor=#009900;" edge="1" parent="1" source="ATMSU0YLp7zQfDPAPbiL-5" target="ATMSU0YLp7zQfDPAPbiL-8">
          <mxGeometry relative="1" as="geometry" />
        </mxCell>
        <mxCell id="ATMSU0YLp7zQfDPAPbiL-26" value="Embedding Model&lt;br&gt;&lt;br&gt;(nomic-embed-text)" style="rounded=0;whiteSpace=wrap;html=1;strokeColor=#2E7BFF;fillColor=#DBFFF5;" vertex="1" parent="1">
          <mxGeometry x="337" y="128" width="70" height="280" as="geometry" />
        </mxCell>
        <mxCell id="ATMSU0YLp7zQfDPAPbiL-27" style="edgeStyle=orthogonalEdgeStyle;rounded=0;orthogonalLoop=1;jettySize=auto;html=1;strokeColor=#009900;entryX=0;entryY=0;entryDx=0;entryDy=62.5;entryPerimeter=0;" edge="1" parent="1" target="ATMSU0YLp7zQfDPAPbiL-10">
          <mxGeometry relative="1" as="geometry">
            <mxPoint x="410" y="228" as="sourcePoint" />
            <mxPoint x="530" y="229" as="targetPoint" />
          </mxGeometry>
        </mxCell>
        <mxCell id="ATMSU0YLp7zQfDPAPbiL-33" value="Document &lt;br&gt;Embeddings" style="edgeLabel;html=1;align=center;verticalAlign=middle;resizable=0;points=[];" vertex="1" connectable="0" parent="ATMSU0YLp7zQfDPAPbiL-27">
          <mxGeometry x="-0.1071" y="-3" relative="1" as="geometry">
            <mxPoint x="1" y="-10" as="offset" />
          </mxGeometry>
        </mxCell>
        <mxCell id="ATMSU0YLp7zQfDPAPbiL-28" style="edgeStyle=orthogonalEdgeStyle;rounded=0;orthogonalLoop=1;jettySize=auto;html=1;exitX=1;exitY=0.75;exitDx=0;exitDy=0;strokeColor=#0000FF;" edge="1" parent="1" source="ATMSU0YLp7zQfDPAPbiL-26">
          <mxGeometry relative="1" as="geometry">
            <mxPoint x="530" y="338" as="targetPoint" />
          </mxGeometry>
        </mxCell>
        <mxCell id="ATMSU0YLp7zQfDPAPbiL-35" value="Query" style="edgeLabel;html=1;align=center;verticalAlign=middle;resizable=0;points=[];" vertex="1" connectable="0" parent="ATMSU0YLp7zQfDPAPbiL-28">
          <mxGeometry x="0.0102" y="-3" relative="1" as="geometry">
            <mxPoint x="1" y="1" as="offset" />
          </mxGeometry>
        </mxCell>
        <mxCell id="ATMSU0YLp7zQfDPAPbiL-30" style="edgeStyle=orthogonalEdgeStyle;rounded=0;orthogonalLoop=1;jettySize=auto;html=1;entryX=0;entryY=0.5;entryDx=0;entryDy=0;entryPerimeter=0;strokeColor=#0000FF;" edge="1" parent="1" source="ATMSU0YLp7zQfDPAPbiL-23" target="ATMSU0YLp7zQfDPAPbiL-1">
          <mxGeometry relative="1" as="geometry" />
        </mxCell>
        <mxCell id="ATMSU0YLp7zQfDPAPbiL-31" style="edgeStyle=orthogonalEdgeStyle;rounded=0;orthogonalLoop=1;jettySize=auto;html=1;entryX=0.5;entryY=0.85;entryDx=0;entryDy=0;entryPerimeter=0;strokeColor=#0000FF;" edge="1" parent="1" source="ATMSU0YLp7zQfDPAPbiL-1" target="ATMSU0YLp7zQfDPAPbiL-12">
          <mxGeometry relative="1" as="geometry">
            <Array as="points">
              <mxPoint x="859" y="528" />
              <mxPoint x="235" y="528" />
            </Array>
          </mxGeometry>
        </mxCell>
        <mxCell id="ATMSU0YLp7zQfDPAPbiL-36" value="Response" style="edgeLabel;html=1;align=center;verticalAlign=middle;resizable=0;points=[];" vertex="1" connectable="0" parent="ATMSU0YLp7zQfDPAPbiL-31">
          <mxGeometry x="0.1013" y="4" relative="1" as="geometry">
            <mxPoint as="offset" />
          </mxGeometry>
        </mxCell>
      </root>
    </mxGraphModel>
  </diagram>
</mxfile>
